<?xml version="1.0" encoding="utf-8"?>
<!-- Generator: Adobe Illustrator 28.3.0, SVG Export Plug-In . SVG Version: 6.00 Build 0)  -->
<svg version="1.2" baseProfile="tiny" id="Laag_1" xmlns="http://www.w3.org/2000/svg" xmlns:xlink="http://www.w3.org/1999/xlink"
	 x="0px" y="0px" viewBox="0 0 169.78 147.89" overflow="visible" xml:space="preserve">
<g>
	<path fill="#1F3B75" d="M88.96,36.75c-14.2,24.47-47.48,81.77-49.9,85.94c-0.5,0.36-15.68-10.37-17.02-12.79
		c6.15-10.32,44.42-76.3,47.56-80.82C76.05,31.64,82.51,34.2,88.96,36.75z"/>
	<path fill="#F9D3E6" d="M6.47,126.29c0-9.11,7.39-16.5,16.5-16.5s16.5,7.39,16.5,16.5s-7.39,16.5-16.5,16.5
		S6.47,135.41,6.47,126.29"/>
	<path fill="#1F3B75" d="M130.67,132.64H47.19c-1.14,0-1.79-1.23-1.23-2.22c0-0.01,0.01-0.01,0.01-0.02
		c2.82-5.14,5.78-10.21,8.47-15.41c1.08-2.09,2.31-2.86,4.74-2.85c26.95,0.11,53.9,0.09,80.86,0.1c1.04,0,1.74,1.06,1.34,2.02
		c-1.77,4.22-6.95,13.17-9.44,17.65C131.68,132.36,131.2,132.64,130.67,132.64z"/>
	<path fill="#1F3B75" d="M141.3,103.06c-8.01,0-15.31-0.03-22.61,0.03c-1.28,0.01-1.8-0.71-2.33-1.64
		c-8.75-15.39-17.51-30.78-26.31-46.15c-0.64-1.12-0.75-1.92,0.14-3.01c4.19-5.08,8.29-10.24,12.84-15.89
		C115.83,58.67,128.41,80.6,141.3,103.06z"/>
	<path fill="#D8EEF6" d="M84.32,5.09c9.11,0,16.5,7.39,16.5,16.5s-7.39,16.5-16.5,16.5s-16.5-7.39-16.5-16.5S75.21,5.09,84.32,5.09"
		/>
	<circle fill="#BAD9A8" cx="146.81" cy="126.29" r="16.5"/>
</g>
</svg>
